<svg height="1200pt" preserveAspectRatio="xMidYMid meet" viewBox="0 0 1200 1200" width="1200pt" xmlns="http://www.w3.org/2000/svg"><path d="m7643 9768c-18-13-50-45-71-73-21-27-362-534-758-1125-395-591-733-1091-752-1112-46-51-80-51-127 0-19 20-367 534-773 1142-587 881-746 1112-780 1137-69 52-125 42-195-36-55-61-1495-2226-1531-2301-27-56-31-76-31-145 0-66 5-90 27-138 15-32 238-371 496-755 258-383 584-868 725-1078 293-437 305-463 227-508-35-21-40-21-1545-21h-1510l-46-21c-55-26-66-55-48-128 8-35 205-338 758-1169 411-617 762-1139 780-1160 86-97 171-89 259 26 34 44 478 710 1265 1898 108 164 209 306 225 318 42 30 93 27 133-6 18-16 367-530 774-1143 474-712 757-1129 783-1152 23-21 52-38 63-38 34 0 81 34 120 87 20 26 358 530 752 1119 415 621 741 1099 776 1137l60 67 66-82c37-45 388-565 781-1154 393-590 731-1087 750-1103 69-61 127-55 201 22 30 31 355 508 814 1197l764 1145 3 83 4 83-178 277c-98 152-834 1260-1635 2462-1019 1530-1470 2198-1502 2228-53 48-78 52-124 20zm1614-2630c-400-621-1471-2221-1506-2251-37-31-51-33-90-13-20 11-249 345-792 1157-420 629-765 1146-767 1151-2 4 715 8 1592 8h1597z" transform="matrix(.1 0 0 -.1 0 1200)"/></svg>